<?xml version="1.0" encoding="utf-8"?>
<!-- Generator: Adobe Illustrator 18.0.0, SVG Export Plug-In . SVG Version: 6.00 Build 0)  -->
<!DOCTYPE svg PUBLIC "-//W3C//DTD SVG 1.1//EN" "http://www.w3.org/Graphics/SVG/1.1/DTD/svg11.dtd">
<svg xmlns="http://www.w3.org/2000/svg" xmlns:xlink="http://www.w3.org/1999/xlink" version="1.1" x="0px" y="0px"
	 width="180px" height="54px" viewBox="0 0 180 54" style="enable-background:new 0 0 180 54;" xml:space="preserve">
<style type="text/css">
	.st0{fill:#1D4386;}
	.st1{fill:#388449;}
	.st2{fill:#679AC9;}
</style>
<g>
	<g>
		<path id="path1937_1_" class="st0" d="M9,26.6h9.3L18.6,54H8.3L9,26.6L9,26.6z"/>
		<path id="path1939_1_" class="st0" d="M57.4,20.4L57,12.5l-31.2,0.7l-0.3,40.4l34.1-0.3V42.7
			L34.8,43v-6.5H55l-0.7-9.2H39.1l-0.3-7.2L57.4,20.4L57.4,20.4z"/>
		<path class="st0" d="M62.7,53.3l12.6-41.1l12.9,0.3l12.3,40.8H86.5l-2.3-8.2h-9.6l-1.7,8.2H62.7L62.7,53.3z M80.2,21.4l-4,15.8
			l8.6-0.3L80.2,21.4L80.2,21.4z"/>
		<path class="st0" d="M128.6,12.5c5.3,0.9,8.2,3.7,8.3,10.6c0.1,5.8-3.3,7.3-8.9,9.9c3.9,0.7,9.4,2.9,10.1,7.9v9.9
			c0.3,1.3,1.4,1.5,1.7,2.7L127,53.5c-1.2-1.1-1.8-1.9-1.7-4.6V38.2l-9.9,0.3l0.7,14.7l-11.9-0.3l-0.3-40.8
			C103.8,12.2,120.5,11.2,128.6,12.5z M112.4,30h10.9v-9.2h-10.9V30z"/>
		<path id="path1949_1_" class="st0" d="M143.2,53.6L142.9,12h13l15.8,27.2l-0.3-25.9h8.7
			l-0.6,40.6h-11.8l-16.1-26.5l-0.3,26.2H143.2L143.2,53.6L143.2,53.6z"/>
	</g>
	<g>
		<circle class="st1" cx="11.2" cy="11.2" r="11.2"/>
		<path class="st2" d="M22.5,11.2c0,6.2-5,11.2-11.2,11.2C5,22.5,0,17.4,0,11.2S5,0,11.2,0C17.4,0,22.5,5,22.5,11.2z M10.2,20.6
			c1.2-0.6,1.7-0.6,2-1.4c0.3-0.8,0.7-0.9,1.3-1.1c1-0.5,0.9-1,1.3-1.7c0.5-0.7-0.1-1.5-0.5-1.9c-0.4-0.4-0.8-0.6-2.2-1
			c0,0-0.6-1-1.1-1c-0.5-0.1-1.1-0.1-1.7-0.3c-0.6-0.3-0.6-0.5-1.6-0.5S7,10.9,7.1,10.2C7.1,9.5,6.6,9.3,6.3,9C6,8.7,5.8,8.8,5.5,9
			c-0.3,0.2-0.3,1.1-1.2,0.5C3.4,8.8,4.2,7.2,5.6,7C7,6.9,8.1,6.5,8.5,8c0.1,0.7,1.3,0.6,1.3-0.9c0-0.9-0.8-1.6-0.8-2
			c0-0.8,0.5-1.5,1.7-1.9c0.7-0.2,1.6-1.1,2.4-2c-0.9-0.2-1.8-0.2-1.8-0.2C8.5,0.9,5.9,2.1,4,4C2.6,5.4,1.7,7,1.3,8.9
			c0.6,1,1.1,2,2.8,2.3c1.8,0.4,3,1.5,3.5,2.1c0,0-1.9,3.5,0.3,4.5c0.9,0.4,0.8,0.7,0.8,0.7s-0.3,1.2-0.2,1.7
			C8.5,20.6,9,21.3,10.2,20.6z M21.5,11.3c0-2.7-1.1-5.3-3-7.2c-0.6-0.6-1.3-1.1-2.1-1.6c0,0.1-0.2,0.3-0.2,0.5
			c0.1,0.7,0.4,0.7,0.1,1.3C16,4.8,16,5.1,16.2,5.8c0.1,0.7,2.2,0.2,2.4,0.6c0,0.5-1,0.7-1.2,0.8c-0.5,0.2-0.9,0.5-1.1,1
			c-0.2,0.5-0.2,1.3-0.1,2.1c0.1,0.7,0.7,1.3,1.3,1.5c0.6,0.1,1.3,0.2,1.6,0.1c0.3-0.1,0.3,0.2,0.4,0.4c0.1,0.2,0.4,1.6,0.1,2
			c-0.3,0.5-0.4,1.9-0.3,2.4c0,0.1,0.1,0.2,0.3,0.4C20.8,15.4,21.5,13.4,21.5,11.3z"/>
	</g>
</g>
</svg>